<?xml version="1.0" encoding="utf-8"?>
<!-- Generator: Adobe Illustrator 23.0.2, SVG Export Plug-In . SVG Version: 6.00 Build 0)  -->
<svg version="1.1" id="Capa_1" xmlns="http://www.w3.org/2000/svg" xmlns:xlink="http://www.w3.org/1999/xlink" x="0px" y="0px"
	 viewBox="0 0 512 512" style="enable-background:new 0 0 512 512;" xml:space="preserve">
<style type="text/css">
	.st0{fill:#FFC512;}
	.st1{display:none;fill:#432509;}
	.st2{fill:#432509;}
</style>
<circle class="st0" cx="258.7" cy="258.3" r="242"/>
<path class="st1" d="M256,512C114.8,512,0,397.2,0,256S114.8,0,256,0s256,114.8,256,256S397.2,512,256,512z M256,36.6
	C135,36.6,36.6,135,36.6,256S135,475.4,256,475.4S475.4,377,475.4,256S377,36.6,256,36.6z"/>
<path class="st1" d="M256,512C114.8,512,0,397.2,0,256S114.8,0,256,0s256,114.8,256,256S397.2,512,256,512z M256,36.6
	C135,36.6,36.6,135,36.6,256S135,475.4,256,475.4S475.4,377,475.4,256S377,36.6,256,36.6z"/>
<path class="st2" d="M350.1,368c-4.7,0-9.4-1.8-12.9-5.4L154.3,179.8c-7.1-7.1-7.1-18.7,0-25.9c7.1-7.1,18.7-7.1,25.9,0L363,336.8
	c7.1,7.1,7.1,18.7,0,25.9C359.5,366.3,354.8,368,350.1,368z"/>
<path class="st2" d="M167.2,368c-4.7,0-9.4-1.8-12.9-5.4c-7.1-7.1-7.1-18.7,0-25.9L337.2,154c7.1-7.1,18.7-7.1,25.9,0
	c7.1,7.1,7.1,18.7,0,25.9L180.2,362.7C176.6,366.3,171.9,368,167.2,368z"/>
</svg>
