<svg xmlns="http://www.w3.org/2000/svg" viewBox="0 0 176.01 136.48"><defs><style>.cls-1,.cls-2{fill:#432509;}.cls-2{font-size:47.06px;font-family:LeagueGothic-Regular, League Gothic;}.cls-3{letter-spacing:0em;}.cls-4{letter-spacing:-0.02em;}</style></defs><title>Recurso 11</title><g id="Capa_2" data-name="Capa 2"><g id="footer"><g id="logo"><path class="cls-1" d="M174.07,81.75c-7.66-38.82-43.68-67-85.63-67s-78,28.17-85.63,67L.87,81.36a80.59,80.59,0,0,1,10.81-27.2A85.73,85.73,0,0,1,31.22,32.42,90.05,90.05,0,0,1,57.47,18a94.48,94.48,0,0,1,61.94,0,90.05,90.05,0,0,1,26.25,14.42A85.73,85.73,0,0,1,165.2,54.16,80.8,80.8,0,0,1,176,81.36Z"/><polygon class="cls-1" points="28.52 88.71 28.52 125.23 0.29 125.23 7.06 106.97 0 88.71 28.52 88.71"/><polygon class="cls-1" points="147.49 88.71 147.49 125.23 175.72 125.23 168.95 106.97 176.01 88.71 147.49 88.71"/><path class="cls-1" d="M147.88,81.74C142.56,54.31,117.56,34.4,88.44,34.4S34.32,54.31,29,81.74l-1.94-.37A59.63,59.63,0,0,1,48.33,46.44a62.7,62.7,0,0,1,18.4-10.29,65,65,0,0,1,43.42,0,62.7,62.7,0,0,1,18.4,10.29,59.63,59.63,0,0,1,21.27,34.93Z"/><text class="cls-2" transform="translate(40.92 124.71)">SAF<tspan class="cls-3" x="47.9" y="0">E</tspan><tspan class="cls-4" x="62.44" y="0">A</tspan><tspan x="79.01" y="0">T</tspan></text><path class="cls-1" d="M106.74,81.75h17.69C107.55,66.87,92.11,52.15,81,37.89,70,22.44,56.67,10.41,41,4.76c-8-1.93-9,1.57-4.51,6.77"/><path class="cls-1" d="M57,81.75H69.66c3.82-5.41,9.36-11.33,16.18-17.7l-4-3.76C73.45,68.22,65.14,75.52,57,81.75Z"/><path class="cls-1" d="M106.9,24.59,136.51,0l.88.88L113.67,24.59c-3.1,3-.56,5.17,2.45,2.07L140.66,4.15l.94.94L115.93,28.91c-1.69,2.45.85,3.68,2.26,2.08L142.85,6.34l1,1-24,25.12c-1.5,1.88.66,4,2.26,2.45L147,10.5l.93.93c-2.31,2.74-23.39,29.29-26.08,29.91-8.19,1.88-13.55,3.1-18.16,5.46l-6.31,5.61-3.17-3.17,7-7.13"/></g></g></g></svg>